HIERARCHY
ROOT joint_Root
{
	OFFSET 0.0 0.0 0.0
	CHANNELS 6 Xposition Yposition Zposition Zrotation Xrotation Yrotation 
	JOINT Hips
	{
		OFFSET -0.726466 93.3139 -2.00062
		CHANNELS 6 Xposition Yposition Zposition Zrotation Xrotation Yrotation 
		JOINT Spine
		{
			OFFSET 15.7357 0.0 0.0
			CHANNELS 6 Xposition Yposition Zposition Zrotation Xrotation Yrotation 
			JOINT Chest
			{
				OFFSET 8.98455 -0.406207 0.0
				CHANNELS 6 Xposition Yposition Zposition Zrotation Xrotation Yrotation 
				JOINT Neck
				{
					OFFSET 16.3773 0.0 0.0
					CHANNELS 6 Xposition Yposition Zposition Zrotation Xrotation Yrotation 
					JOINT Head
					{
						OFFSET 6.45672 0.0 0.0
						CHANNELS 6 Xposition Yposition Zposition Zrotation Xrotation Yrotation 
						End Site
						{
							OFFSET 0.0 0.0 0.0
						}
					}
				}
				JOINT Shoulder_L
				{
					OFFSET 12.9942 -0.242716 4.98039
					CHANNELS 6 Xposition Yposition Zposition Zrotation Xrotation Yrotation 
					JOINT UpperArm_L
					{
						OFFSET 5.34809 0.0 0.0
						CHANNELS 6 Xposition Yposition Zposition Zrotation Xrotation Yrotation 
						JOINT LowerArm_L
						{
							OFFSET 24.3286 1.87007e-05 0.0
							CHANNELS 6 Xposition Yposition Zposition Zrotation Xrotation Yrotation 
							JOINT Hand_L
							{
								OFFSET 22.2916 0.0 0.0
								CHANNELS 6 Xposition Yposition Zposition Zrotation Xrotation Yrotation 
								End Site
								{
									OFFSET 0.0 0.0 0.0
								}
							}
						}
					}
				}
				JOINT Shoulder_R
				{
					OFFSET 12.9945 -0.242716 -4.98039
					CHANNELS 6 Xposition Yposition Zposition Zrotation Xrotation Yrotation 
					JOINT UpperArm_R
					{
						OFFSET -5.34813 0.0 0.0
						CHANNELS 6 Xposition Yposition Zposition Zrotation Xrotation Yrotation 
						JOINT LowerArm_R
						{
							OFFSET -24.3289 0.000322201 0.0
							CHANNELS 6 Xposition Yposition Zposition Zrotation Xrotation Yrotation 
							JOINT Hand_R
							{
								OFFSET -22.2915 -0.000108084 0.0
								CHANNELS 6 Xposition Yposition Zposition Zrotation Xrotation Yrotation 
								End Site
								{
									OFFSET 0.0 0.0 0.0
								}
							}
						}
					}
				}
			}
		}
		JOINT UpperLeg_L
		{
			OFFSET -2.19248 -6.46944 0.0
			CHANNELS 6 Xposition Yposition Zposition Zrotation Xrotation Yrotation 
			JOINT LowerLeg_L
			{
				OFFSET 39.0811 0.0 -1.23785e-05
				CHANNELS 6 Xposition Yposition Zposition Zrotation Xrotation Yrotation 
				JOINT Foot_L
				{
					OFFSET 40.9854 0.0 -1.26872e-05
					CHANNELS 6 Xposition Yposition Zposition Zrotation Xrotation Yrotation 
					JOINT Toes_L
					{
						OFFSET 11.7543 0.0 0.0
						CHANNELS 6 Xposition Yposition Zposition Zrotation Xrotation Yrotation 
						End Site
						{
							OFFSET 0.0 0.0 0.0
						}
					}
				}
			}
		}
		JOINT UpperLeg_R
		{
			OFFSET -2.19251 6.46944 0.0
			CHANNELS 6 Xposition Yposition Zposition Zrotation Xrotation Yrotation 
			JOINT LowerLeg_R
			{
				OFFSET -39.0811 -0.00228153 -0.0401928
				CHANNELS 6 Xposition Yposition Zposition Zrotation Xrotation Yrotation 
				JOINT Foot_R
				{
					OFFSET -40.9854 0.0 0.0
					CHANNELS 6 Xposition Yposition Zposition Zrotation Xrotation Yrotation 
					JOINT Toes_R
					{
						OFFSET -11.7543 0.0 0.0
						CHANNELS 6 Xposition Yposition Zposition Zrotation Xrotation Yrotation 
						End Site
						{
							OFFSET 0.0 0.0 0.0
						}
					}
				}
			}
		}
	}
}
MOTION
Frames:	6
Frame Time:	0.0333333
0.000000 0.000000 0.000000 0.000000 0.000000 -0.000000 -1.515780 92.399200 -1.995710 88.378100 0.954219 3.968580 15.735700 0.000005 -0.000001 77.663500 85.578400 -76.220200 8.984550 -0.406207 -0.000000 0.900110 -1.975070 2.900160 16.377300 -0.000001 -0.000001 2.212920 -2.058150 -1.251900 6.456720 -0.000001 -0.000000 5.026540 -1.952040 0.617521 12.994200 -0.242716 4.980390 -88.103100 -5.416450 -70.666300 5.348090 -0.000007 -0.000001 -46.764100 -34.813800 -60.049700 24.328600 0.000019 0.000005 16.097300 -3.621340 -102.334000 22.291600 -0.000001 0.000005 34.701400 5.589960 -10.764300 12.994500 -0.242716 -4.980390 88.479000 4.871030 -72.635000 -5.348130 -0.000001 -0.000004 -66.631400 35.791800 -13.465700 -24.328900 0.000322 -0.000009 1.716810 8.325020 -11.702600 -22.291500 -0.000108 -0.000004 7.107450 5.374360 -2.122120 -2.192480 -6.469440 -0.000000 -175.372000 -6.416810 -3.521480 39.081100 -0.000007 -0.000012 -0.101354 0.245083 22.467700 40.985400 -0.000006 -0.000013 -0.585595 4.194290 -65.198700 11.754300 -0.000000 0.000003 -0.000027 -0.000330 -16.590500 -2.192510 6.469440 -0.000001 179.958000 16.556200 -179.999000 -39.081100 -0.002282 -0.040193 -0.022822 0.075492 19.102100 -40.985400 0.000008 0.000006 4.218600 5.861390 -65.719100 -11.754300 -0.000006 -0.000006 -0.005562 -0.066804 -19.291600
0.000000 0.000000 0.000000 0.000000 0.000000 -0.000000 -1.479500 92.392400 -1.968190 88.409000 0.913862 4.038410 15.735700 0.000005 -0.000001 77.273000 85.558900 -75.820100 8.984550 -0.406207 -0.000000 0.926193 -2.042710 2.920230 16.377300 -0.000001 -0.000001 2.253990 -1.954690 -1.397060 6.456720 -0.000001 -0.000000 5.005140 -1.693770 0.416492 12.994200 -0.242716 4.980390 -88.165900 -5.253160 -70.722700 5.348090 -0.000007 -0.000001 -42.042000 -33.342900 -57.701100 24.328600 0.000019 0.000005 23.300400 -6.369880 -104.444000 22.291600 -0.000001 0.000005 36.592300 5.641880 -14.195000 12.994500 -0.242716 -4.980390 88.489900 4.819170 -72.578500 -5.348130 -0.000001 -0.000004 -66.570900 35.466900 -13.796600 -24.328900 0.000322 -0.000009 1.691570 8.257680 -11.626100 -22.291500 -0.000108 -0.000004 7.160680 5.373030 -2.080640 -2.192480 -6.469440 -0.000000 -175.406000 -6.466630 -3.418000 39.081100 -0.000007 -0.000012 -0.101871 0.246242 22.475100 40.985400 -0.000006 -0.000013 -0.558053 4.224560 -65.238000 11.754300 -0.000000 0.000003 -0.000033 -0.000392 -16.592900 -2.192510 6.469440 -0.000001 179.868000 16.509400 -179.931000 -39.081100 -0.002282 -0.040193 -0.025421 0.082724 19.161000 -40.985400 0.000008 0.000006 4.146860 5.849440 -65.756200 -11.754300 -0.000006 -0.000006 -0.005325 -0.064576 -19.200800
0.000000 0.000000 0.000000 0.000000 0.000000 -0.000000 -1.430780 92.384400 -1.928680 88.414900 0.697304 4.076580 15.735700 0.000005 -0.000001 76.864700 85.538400 -75.369800 8.984550 -0.406207 -0.000000 0.953818 -2.115830 3.005240 16.377300 -0.000001 -0.000001 2.273560 -1.934070 -1.458530 6.456720 -0.000001 -0.000000 4.944560 -1.552730 0.134828 12.994200 -0.242716 4.980390 -88.217500 -5.134340 -70.825200 5.348090 -0.000007 -0.000001 -40.552900 -33.036800 -56.407300 24.328600 0.000019 0.000005 25.970500 -7.180970 -104.393000 22.291600 -0.000001 0.000005 39.542300 5.667720 -17.009300 12.994500 -0.242716 -4.980390 88.505000 4.749300 -72.504200 -5.348130 -0.000001 -0.000004 -66.350000 35.401500 -14.255400 -24.328900 0.000322 -0.000009 1.699480 7.927670 -12.147900 -22.291500 -0.000108 -0.000004 7.245390 5.374760 -2.134270 -2.192480 -6.469440 -0.000000 -175.438000 -6.562190 -3.334550 39.081100 -0.000007 -0.000012 -0.100740 0.243113 22.508100 40.985400 -0.000006 -0.000013 -0.547227 4.102070 -65.305400 11.754300 -0.000000 0.000003 -0.000027 -0.000329 -16.590400 -2.192510 6.469440 -0.000001 179.790000 16.407800 -179.889000 -39.081100 -0.002282 -0.040193 -0.029258 0.093605 19.191400 -40.985400 0.000008 0.000006 3.960850 6.006770 -65.756700 -11.754300 -0.000006 -0.000006 -0.005500 -0.066225 -19.268000
0.000000 0.000000 0.000000 0.000000 0.000000 -0.000000 -1.402140 92.393300 -1.940340 88.391400 0.263690 4.000700 15.735700 0.000005 -0.000001 76.506700 85.551400 -74.957400 8.984550 -0.406207 -0.000000 0.917642 -2.167750 3.113700 16.377300 -0.000001 -0.000001 2.229460 -1.958720 -1.506410 6.456720 -0.000001 -0.000000 5.005500 -1.454340 0.025367 12.994200 -0.242716 4.980390 -88.242500 -5.072430 -70.860800 5.348090 -0.000007 -0.000001 -42.099200 -34.152400 -56.256300 24.328600 0.000019 0.000005 23.907800 -5.764330 -102.763000 22.291600 -0.000001 0.000005 39.768600 5.666510 -16.846800 12.994500 -0.242716 -4.980390 88.510300 4.743200 -72.541300 -5.348130 -0.000001 -0.000004 -65.941600 35.642000 -14.729300 -24.328900 0.000322 -0.000009 1.786180 7.630120 -13.224900 -22.291500 -0.000108 -0.000004 7.177030 5.375620 -2.161450 -2.192480 -6.469440 -0.000000 -175.439000 -6.780790 -3.322330 39.081100 -0.000007 -0.000012 -0.099960 0.241908 22.451100 40.985400 -0.000006 -0.000013 -0.570154 3.882940 -65.310700 11.754300 -0.000000 0.000003 -0.000033 -0.000389 -16.592700 -2.192510 6.469440 -0.000001 179.825000 16.148800 -179.987000 -39.081100 -0.002282 -0.040193 -0.030123 0.096330 19.147300 -40.985400 0.000008 0.000006 3.958230 6.179890 -65.693200 -11.754300 -0.000006 -0.000006 -0.005399 -0.065279 -19.229400
0.000000 0.000000 0.000000 0.000000 0.000000 -0.000000 -1.387850 92.397500 -1.942980 88.377200 -0.284168 3.962750 15.735700 0.000005 -0.000001 76.311900 85.548100 -74.702000 8.984550 -0.406207 -0.000000 0.918697 -2.202280 3.235200 16.377300 -0.000001 -0.000001 2.195270 -1.943390 -1.507400 6.456720 -0.000001 -0.000000 4.946980 -1.408680 -0.106506 12.994200 -0.242716 4.980390 -88.227500 -5.117080 -70.865500 5.348090 -0.000007 -0.000001 -45.880900 -36.453100 -57.043800 24.328600 0.000019 0.000005 20.669800 -3.495310 -99.174200 22.291600 -0.000001 0.000005 38.395300 5.651800 -15.167300 12.994500 -0.242716 -4.980390 88.494300 4.784870 -72.510000 -5.348130 -0.000001 -0.000004 -65.295800 36.185000 -15.388200 -24.328900 0.000322 -0.000009 1.802740 7.010850 -14.468000 -22.291500 -0.000108 -0.000004 7.073900 5.382540 -2.378290 -2.192480 -6.469440 -0.000000 -175.410000 -7.180390 -3.253260 39.081100 -0.000007 -0.000012 -0.101490 0.246183 22.404200 40.985400 -0.000006 -0.000013 -0.595737 3.728660 -65.331600 11.754300 -0.000000 0.000003 -0.000030 -0.000363 -16.591700 -2.192510 6.469440 -0.000001 179.849000 15.790600 179.944000 -39.081100 -0.002282 -0.040193 -0.031612 0.100769 19.120600 -40.985400 0.000008 0.000006 3.843170 6.392270 -65.621800 -11.754300 -0.000006 -0.000006 -0.005524 -0.066450 -19.277200
0.000000 0.000000 0.000000 0.000000 0.000000 -0.000000 -1.406610 92.404000 -1.971110 88.293400 -0.924117 3.800910 15.735700 0.000005 -0.000001 76.159000 85.586600 -74.454800 8.984550 -0.406207 -0.000000 0.840578 -2.213800 3.422270 16.377300 -0.000001 -0.000001 2.171020 -1.971040 -1.401130 6.456720 -0.000001 -0.000000 4.904220 -1.407960 -0.349216 12.994200 -0.242716 4.980390 -88.191500 -5.198080 -70.785500 5.348090 -0.000007 -0.000001 -50.789200 -39.267200 -58.783300 24.328600 0.000019 0.000005 17.211400 -1.118590 -93.598200 22.291600 -0.000001 0.000005 37.396300 5.633640 -13.606000 12.994500 -0.242716 -4.980390 88.458100 4.869750 -72.407000 -5.348130 -0.000001 -0.000004 -64.620600 36.649100 -16.080800 -24.328900 0.000322 -0.000009 1.862420 6.630850 -15.736000 -22.291500 -0.000108 -0.000004 7.111980 5.387480 -2.534950 -2.192480 -6.469440 -0.000000 -175.313000 -7.556710 -3.332790 39.081100 -0.000007 -0.000012 -0.101699 0.246767 22.398000 40.985400 -0.000006 -0.000013 -0.660093 3.493880 -65.362000 11.754300 -0.000000 0.000003 -0.000030 -0.000363 -16.591700 -2.192510 6.469440 -0.000001 -179.964000 15.396200 179.720000 -39.081100 -0.002282 -0.040193 -0.029149 0.093791 19.096600 -40.985400 0.000008 0.000006 4.040530 6.561890 -65.575200 -11.754300 -0.000006 -0.000006 -0.005696 -0.068049 -19.342400
